<?xml version="1.0" standalone="no"?>
<!DOCTYPE svg PUBLIC "-//W3C//DTD SVG 20010904//EN"
 "http://www.w3.org/TR/2001/REC-SVG-20010904/DTD/svg10.dtd">
<svg version="1.0" xmlns="http://www.w3.org/2000/svg"
 width="180.000000pt" height="180.000000pt" viewBox="0 0 180.000000 180.000000"
 preserveAspectRatio="xMidYMid meet">
<metadata>
Created by potrace 1.11, written by Peter Selinger 2001-2013
</metadata>
<g transform="translate(0.000000,180.000000) scale(0.100000,-0.100000)"
fill="#000000" stroke="none">
<path d="M776 1330 c-193 -69 -300 -285 -238 -480 17 -54 18 -55 60 -58 23 -2
42 -2 42 0 0 2 -9 28 -21 58 -65 170 15 346 186 411 24 9 66 15 106 13 173 -6
301 -143 295 -317 -1 -38 -7 -72 -13 -75 -6 -4 -79 -7 -162 -7 -83 1 -151 -2
-152 -5 -1 -3 -2 -21 -3 -40 l-1 -35 185 0 185 0 18 55 c60 181 -26 383 -200
465 -81 39 -203 45 -287 15z"/>
<path d="M123 703 c-8 -3 -13 -23 -13 -52 0 -46 0 -47 34 -49 19 -1 37 2 41 8
4 6 -6 10 -24 10 -17 0 -31 5 -31 10 0 10 9 13 43 13 9 0 17 4 17 8 0 9 -14
12 -42 10 -10 -1 -18 4 -18 13 0 11 8 15 30 12 18 -2 29 1 27 7 -3 11 -44 17
-64 10z"/>
<path d="M379 700 c-1 -3 -2 -18 -4 -35 -1 -16 -3 -35 -4 -41 0 -6 -14 -9 -31
-6 -30 4 -34 12 -30 60 1 12 -3 22 -9 22 -6 0 -11 -21 -11 -48 l0 -48 85 -1
c47 0 82 3 79 8 -3 5 -19 9 -35 9 -20 0 -29 4 -26 13 2 6 16 11 31 10 18 -1
26 2 23 10 -2 7 -16 11 -31 9 -20 -3 -27 0 -24 10 3 7 16 13 31 13 28 1 50 14
26 16 -47 5 -69 4 -70 -1z"/>
<path d="M559 694 c-1 -8 -1 -23 -1 -34 0 -58 1 -60 36 -60 39 0 59 19 59 56
0 34 -13 45 -57 48 -25 2 -36 -1 -37 -10z m68 -16 c5 -7 8 -19 7 -25 -1 -7 -2
-18 -3 -24 0 -6 -13 -9 -28 -7 -22 2 -28 8 -28 28 0 14 1 28 3 33 5 12 39 8
49 -5z"/>
<path d="M684 702 c-12 -7 -18 -46 -14 -87 1 -19 2 -19 12 3 14 29 58 31 58 2
0 -24 38 -28 46 -5 4 8 14 15 24 15 10 0 20 -7 24 -15 6 -17 76 -21 76 -5 0 6
-14 10 -31 10 -20 0 -29 4 -26 13 2 6 14 12 27 12 13 0 25 5 27 11 2 7 -8 9
-27 6 -22 -3 -30 0 -30 10 0 11 13 15 50 15 53 1 53 1 52 -59 -1 -45 17 -32
20 14 2 30 8 42 21 44 9 1 17 -4 17 -11 0 -16 12 -25 41 -30 30 -6 36 -14 19
-25 -10 -6 -23 -4 -37 6 -20 13 -23 13 -23 -1 0 -19 48 -31 69 -18 30 19 24
40 -14 53 -27 9 -34 15 -26 23 9 9 17 8 31 -1 23 -14 27 0 5 18 -8 6 -20 8
-26 4 -7 -4 -33 -6 -58 -5 -165 9 -173 7 -201 -43 -27 -51 -40 -51 -34 -1 2
18 -1 37 -6 40 -17 11 -54 15 -66 7z m54 -29 c2 -9 -7 -13 -28 -13 -28 0 -31
2 -20 15 15 18 41 16 48 -2z m99 -8 c0 -8 -6 -15 -14 -15 -14 0 -17 12 -6 23
11 11 20 8 20 -8z"/>
<path d="M1125 696 c-25 -18 -13 -43 24 -51 17 -4 31 -10 31 -15 0 -16 -35
-16 -54 -1 -17 15 -18 15 -15 -4 3 -14 13 -21 35 -23 56 -5 72 53 16 60 -31 4
-43 28 -13 28 11 0 23 -5 26 -10 4 -6 11 -8 16 -4 11 6 -18 33 -37 34 -5 0
-19 -6 -29 -14z"/>
<path d="M1257 682 c-27 -26 -27 -26 -27 -4 0 12 -4 22 -10 22 -5 0 -10 -22
-10 -50 0 -27 5 -50 10 -50 6 0 10 9 10 20 0 11 6 20 13 20 7 0 18 -9 25 -20
7 -11 19 -20 27 -20 12 0 9 7 -10 27 -30 34 -31 38 -4 56 11 8 16 17 12 20 -5
3 -22 -6 -36 -21z"/>
<path d="M1333 700 c-30 -12 -38 -46 -19 -75 27 -41 91 -27 100 22 8 40 -37
70 -81 53z m54 -22 c5 -7 8 -19 7 -25 -1 -7 -2 -18 -3 -24 -2 -18 -65 -6 -69
14 -7 37 43 64 65 35z"/>
<path d="M1545 700 c-28 -5 -30 -8 -31 -48 0 -35 3 -43 20 -46 38 -7 66 -5 66
5 0 5 -16 9 -35 9 -26 0 -33 4 -29 14 4 9 15 13 31 10 17 -3 24 -1 21 8 -3 7
-14 13 -26 13 -27 0 -29 20 -2 21 35 2 40 4 40 12 0 10 -11 10 -55 2z"/>
<path d="M1619 705 c-7 -3 -6 -96 1 -100 6 -3 10 3 10 15 0 17 5 21 28 18 15
-2 27 -9 27 -15 0 -7 5 -12 10 -10 6 1 8 7 6 12 -2 6 -3 25 -3 43 1 18 -4 33
-11 33 -15 2 -67 5 -68 4z m61 -30 c1 -5 -11 -11 -25 -13 -23 -3 -33 7 -20 20
9 9 45 4 45 -7z"/>
<path d="M1728 699 c-25 -14 -22 -36 5 -50 12 -7 23 -12 25 -11 8 6 22 0 22
-8 0 -14 -43 -12 -59 3 -11 10 -13 9 -9 -2 7 -23 33 -34 61 -27 40 10 35 42
-8 56 -19 6 -35 16 -35 21 0 13 34 11 48 -3 6 -6 15 -8 19 -4 9 8 -24 36 -41
36 -6 0 -19 -5 -28 -11z"/>
<path d="M0 695 c0 -11 40 -84 49 -90 10 -6 32 30 45 73 12 37 -10 25 -26 -15
l-15 -38 -17 38 c-9 20 -21 37 -26 37 -6 0 -10 -2 -10 -5z"/>
<path d="M250 661 c0 -45 -14 -61 -29 -34 -12 22 -24 13 -15 -11 4 -11 15 -16
33 -14 23 3 26 8 29 51 2 28 -1 47 -7 47 -6 0 -11 -18 -11 -39z"/>
<path d="M520 656 c0 -25 4 -47 9 -51 6 -3 10 16 9 45 0 27 -4 50 -9 50 -5 0
-9 -20 -9 -44z"/>
<path d="M1430 650 l0 -50 35 0 c41 0 47 17 8 22 -26 3 -28 6 -26 41 2 20 -2
37 -7 37 -6 0 -10 -22 -10 -50z"/>
<path d="M533 552 c-26 -4 -25 -2 -27 -59 l-2 -43 44 0 c26 0 41 4 37 10 -3 6
-19 10 -36 10 -16 0 -29 5 -29 10 0 10 13 14 42 11 9 -1 19 3 23 9 6 9 -21 15
-54 11 -7 -2 -11 4 -9 11 3 7 16 12 31 10 14 -1 28 2 31 7 7 11 -21 18 -51 13z"/>
<path d="M613 545 c-14 -11 -16 -18 -7 -32 6 -10 13 -16 15 -14 2 2 15 -1 28
-9 22 -11 23 -13 7 -22 -13 -7 -22 -5 -35 6 -20 18 -36 10 -20 -11 15 -18 64
-17 79 2 15 19 -3 45 -31 45 -19 0 -35 17 -25 28 4 3 16 0 27 -7 22 -13 35 -9
25 7 -10 17 -45 20 -63 7z"/>
<path d="M694 551 c-10 -10 -3 -23 11 -17 12 4 15 -3 15 -34 0 -21 5 -42 10
-45 6 -4 10 11 10 39 0 35 3 44 14 40 8 -3 17 -1 20 4 6 10 -71 22 -80 13z"/>
<path d="M809 546 c-48 -23 -28 -96 25 -96 25 0 54 26 42 37 -4 4 -10 2 -14
-4 -11 -18 -44 -19 -55 -2 -23 37 20 74 52 45 11 -10 22 -13 25 -8 14 23 -43
44 -75 28z"/>
<path d="M905 550 c-4 -7 -7 -50 -6 -77 1 -20 7 -23 41 -23 22 0 40 5 40 10 0
6 -13 10 -29 10 -32 0 -54 19 -24 21 18 1 28 3 48 9 6 1 -5 5 -23 9 -41 8 -42
26 -2 26 17 -1 29 3 27 9 -3 9 -66 15 -72 6z"/>
<path d="M1133 552 c-13 -2 -23 -8 -23 -14 0 -5 7 -8 15 -4 12 4 15 -4 15 -39
0 -25 4 -45 10 -45 5 0 9 16 8 36 -1 24 4 41 15 49 9 7 17 14 17 16 0 5 -25 6
-57 1z"/>
<path d="M1238 553 l-38 -4 3 -47 3 -47 43 -3 c28 -2 41 0 36 7 -3 6 -19 11
-36 11 -32 0 -41 19 -9 21 33 2 38 4 46 12 4 4 -10 7 -30 7 -26 0 -36 4 -33
13 2 6 16 12 30 11 16 0 27 5 27 13 0 7 -1 12 -2 11 -2 -1 -20 -3 -40 -5z"/>
<path d="M1311 552 c-14 -5 -15 -102 -1 -102 6 0 10 9 10 20 0 15 7 20 25 20
15 0 25 -6 25 -14 0 -8 4 -17 9 -20 5 -3 9 16 9 43 1 48 0 49 -32 53 -19 2
-39 2 -45 0z m59 -28 c0 -8 -10 -14 -25 -14 -33 0 -33 25 0 26 15 1 25 -3 25
-12z"/>
<path d="M405 539 c4 -6 13 -8 21 -5 14 5 19 -20 15 -66 -1 -10 2 -18 8 -18 5
0 11 19 13 43 2 23 8 42 15 42 6 0 15 3 19 8 4 4 -16 7 -45 7 -34 0 -50 -4
-46 -11z"/>
<path d="M997 543 c-7 -16 -1 -83 8 -81 6 2 9 17 8 33 l-1 30 34 -39 c19 -22
37 -36 41 -32 12 12 10 96 -2 96 -7 0 -10 -14 -8 -37 l2 -37 -32 37 c-32 37
-43 43 -50 30z"/>
</g>
</svg>
